<?xml version="1.0" encoding="UTF-8"?>
<!DOCTYPE svg PUBLIC "-//W3C//DTD SVG 1.1//EN" "http://www.w3.org/Graphics/SVG/1.1/DTD/svg11.dtd">
<!-- Creator: CorelDRAW -->
<svg xmlns="http://www.w3.org/2000/svg" xml:space="preserve" width="32mm" height="30mm" style="shape-rendering:geometricPrecision; text-rendering:geometricPrecision; image-rendering:optimizeQuality; fill-rule:evenodd; clip-rule:evenodd"
viewBox="0 0 12.8464 12.0435"
 xmlns:xlink="http://www.w3.org/1999/xlink">
 <defs>
  <style type="text/css">
   <![CDATA[
    .str0 {stroke:#FEFEFE;stroke-width:0.254922;stroke-linecap:round;stroke-linejoin:round}
    .fil6 {fill:none}
    .fil5 {fill:#27404E}
    .fil4 {fill:#63C7F2}
    .fil2 {fill:#71BD86}
    .fil1 {fill:#E3E3E5}
    .fil0 {fill:#FEFEFE}
    .fil3 {fill:#FFD964}
   ]]>
  </style>
 </defs>
 <g id="Layer_x0020_1">
  <metadata id="CorelCorpID_0Corel-Layer"/>
  <g id="_434542104">
   <path id="_435319160" class="fil0" d="M6.42322 11.6421c-1.13771,0 -1.98859,-0.0218791 -2.60943,-0.194905l0 -0.206547 0 -0.401451 0 -0.401451 0.602177 0 0 -1.20435 -1.00363 0 0 -0.401451 0.401451 0 0 -1.20435 -1.32178 0c0.18808,-1.38641 0.768578,-3.15199 2.39345,-4.41596l3.07512 0c0.047572,0.0369335 0.0931367,0.0748707 0.138099,0.113209 -0.170416,0.254922 -0.270377,0.561229 -0.270377,0.890419 0,0.885401 0.720404,1.6058 1.6058,1.6058 0.147935,0 0.290651,-0.0216784 0.426743,-0.0594148 0.467691,1.15096 0.576885,2.2951 0.576885,3.0703 0,2.67407 -1.03153,2.81016 -4.01451,2.81016z"/>
   <path id="_431711368" class="fil1" d="M8.02902 3.01088l-1.6058 0 0 7.42484c0,0.334007 -0.272786,0.604786 -0.606794,0.602378 -0.0678453,-0.000602177 -0.13007,-0.00200726 -0.196109,-0.00281016l0 0.00461669 -2.85974 0c0.628271,0.748907 1.81315,0.802902 3.66264,0.802902 2.94926,0 4.21524,-0.128665 4.21524,-3.01088 0,-2.13873 -0.725021,-4.38806 -2.60943,-5.82104z"/>
   <path id="_431711104" class="fil2" d="M6.42322 5.82104c1.10857,0 2.00726,0.898689 2.00726,2.00726 0,1.10857 -0.898689,2.00726 -2.00726,2.00726 -1.10857,0 -2.00726,-0.898689 -2.00726,-2.00726 0,-1.10857 0.898689,-2.00726 2.00726,-2.00726z"/>
   <path id="_431710552" class="fil3" d="M9.4341 2.81016c0.776005,0 1.40508,0.629074 1.40508,1.40508 0,0.776005 -0.629074,1.40508 -1.40508,1.40508 -0.776005,0 -1.40508,-0.629074 -1.40508,-1.40508 0,-0.776005 0.629074,-1.40508 1.40508,-1.40508z"/>
   <path id="_431710576" class="fil3" d="M11.341 5.62032c0.498843,0 0.903265,0.404422 0.903265,0.903265 0,0.498843 -0.404422,0.903265 -0.903265,0.903265 -0.498843,0 -0.903265,-0.404422 -0.903265,-0.903265 0,-0.498843 0.404422,-0.903265 0.903265,-0.903265z"/>
   <path id="_431710888" class="fil3" d="M11.9432 2.40871c0.388003,0 0.70254,0.314537 0.70254,0.70254 0,0.388003 -0.314537,0.70254 -0.70254,0.70254 -0.388003,0 -0.70254,-0.314537 -0.70254,-0.70254 0,-0.388003 0.314537,-0.70254 0.70254,-0.70254z"/>
   <polygon id="_429451168" class="fil0" points="6.52358,0.401451 7.22612,1.33824 7.92866,0.401451 8.36143,0.401451 7.87969,2.00726 4.96675,2.00726 4.48501,0.401451 "/>
   <polygon id="_429451264" class="fil4" points="5.01814,2.40871 7.8283,2.40871 7.8283,2.81016 5.01814,2.81016 "/>
   <polygon id="_429451312" class="fil1" points="6.62395,0.200726 7.22612,1.00363 7.8283,0.200726 8.6312,0.200726 8.02902,2.00726 6.42322,2.00726 "/>
   <polygon id="_429450976" class="fil3" points="0.602177,11.0399 3.61306,11.0399 3.61306,11.8428 0.602177,11.8428 "/>
   <polygon id="_429451048" class="fil3" points="0.602177,10.237 3.61306,10.237 3.61306,11.0399 0.602177,11.0399 "/>
   <polygon id="_439450752" class="fil3" points="1.20435,9.4341 4.21524,9.4341 4.21524,10.237 1.20435,10.237 "/>
   <polygon id="_439450560" class="fil3" points="0.200726,8.6312 3.21161,8.6312 3.21161,9.4341 0.200726,9.4341 "/>
   <polygon id="_439450824" class="fil3" points="0.602177,7.8283 3.61306,7.8283 3.61306,8.6312 0.602177,8.6312 "/>
   <path id="_439450728" class="fil5" d="M11.341 7.22612c-0.3874,0 -0.70254,-0.315139 -0.70254,-0.70254 0,-0.3874 0.315139,-0.70254 0.70254,-0.70254 0.3874,0 0.70254,0.315139 0.70254,0.70254 0,0.3874 -0.315139,0.70254 -0.70254,0.70254zm-4.91778 4.41596c-1.13771,0 -1.98859,-0.0218791 -2.60943,-0.194905l0 -0.206547 0 -0.401451 0 -0.401451 0.602177 0 0 -1.20435 -1.00363 0 0 -0.401451 0.401451 0 0 -1.20435 -1.32178 0c0.18808,-1.38641 0.768578,-3.15199 2.39345,-4.41596l3.07512 0c0.047572,0.0369335 0.0931367,0.0748707 0.138099,0.113209 -0.170416,0.254922 -0.270377,0.561229 -0.270377,0.890419 0,0.885401 0.720404,1.6058 1.6058,1.6058 0.147935,0 0.290651,-0.0216784 0.426743,-0.0594148 0.467691,1.15096 0.576885,2.2951 0.576885,3.0703 0,2.67407 -1.03153,2.81016 -4.01451,2.81016zm-3.01088 0l-2.60943 0 0 -0.401451 2.60943 0 0 0.401451zm-2.60943 -1.20435l0.200726 0 2.40871 0 0 0.401451 -2.60943 0 0 -0.401451zm0.602177 -0.802902l2.00726 0 0.602177 0 0 0.401451 -0.200726 0 -2.40871 0 0 -0.401451zm-1.00363 -0.401451l0 -0.401451 2.60943 0 0 0.401451 -2.00726 0 -0.602177 0zm0.401451 -1.20435l2.60943 0 0 0.401451 -2.60943 0 0 -0.401451zm5.72068 -7.62757l0.70254 0.936786 0.70254 -0.936786 0.432764 0 -0.481741 1.6058 -2.91293 0 -0.481741 -1.6058 2.03857 0zm-1.50544 2.00726l2.81016 0 0 0.401451 -2.81016 0 0 -0.401451zm4.41596 0.602177c0.664201,0 1.20435,0.540153 1.20435,1.20435 0,0.664201 -0.540153,1.20435 -1.20435,1.20435 -0.664201,0 -1.20435,-0.540153 -1.20435,-1.20435 0,-0.664201 0.540153,-1.20435 1.20435,-1.20435zm1.90689 2.40871c-0.413093,0 -0.773396,0.228426 -0.96268,0.565444 -0.0433567,-0.126056 -0.0927352,-0.252513 -0.144322,-0.379371 0.480738,-0.277804 0.805913,-0.796279 0.805913,-1.39043 0,-0.885401 -0.720404,-1.6058 -1.6058,-1.6058 -0.412692,0 -0.78845,0.157971 -1.07328,0.414699 -0.0433567,-0.0361306 -0.086312,-0.0724619 -0.131074,-0.10799l0 -0.678854 0.671226 -2.23729 -1.17304 0 -0.501814 0.669019 -0.501814 -0.669019 -2.77885 0 0.671226 2.23749 0 0.678051c-1.73246,1.36092 -2.34066,3.24814 -2.53055,4.71203l-1.68469 0 0 0.802902 -0.401451 0 0 1.20435 1.00363 0 0 0.401451 -0.602177 0 0 0.802902 0 0.401451 0 0.802902 3.41234 0 0 -0.183463c0.675843,0.163591 1.54197,0.183463 2.60943,0.183463 2.98238,0 4.41596,-0.136493 4.41596,-3.21161 0,-0.387601 -0.0272987,-0.865328 -0.106184,-1.38782 0.174631,0.115618 0.383386,0.183463 0.607998,0.183463 0.608801,0 1.10399,-0.49519 1.10399,-1.10399 0,-0.608801 -0.49519,-1.10399 -1.10399,-1.10399z"/>
   <path id="_439451160" class="fil5" d="M11.9432 3.61306c-0.2766,0 -0.501814,-0.225214 -0.501814,-0.501814 0,-0.2766 0.225214,-0.501814 0.501814,-0.501814 0.2766,0 0.501814,0.225214 0.501814,0.501814 0,0.2766 -0.225214,0.501814 -0.501814,0.501814zm0 -1.40508c-0.498,0 -0.903265,0.405265 -0.903265,0.903265 0,0.498 0.405265,0.903265 0.903265,0.903265 0.498,0 0.903265,-0.405265 0.903265,-0.903265 0,-0.498 -0.405265,-0.903265 -0.903265,-0.903265z"/>
   <polygon id="_428959520" class="fil5" points="6.22249,9.63483 6.62395,9.63483 6.62395,10.0363 6.22249,10.0363 "/>
   <polygon id="_428959808" class="fil5" points="6.22249,5.62032 6.62395,5.62032 6.62395,6.02177 6.22249,6.02177 "/>
   <polygon id="_428959688" class="fil5" points="7.08317,9.94487 6.92953,9.57397 7.30043,9.42033 7.45407,9.79124 "/>
   <polygon id="_428960000" class="fil5" points="5.76335,5.71109 5.91703,6.08199 5.54609,6.23562 5.39245,5.86472 "/>
   <polygon id="_431016864" class="fil5" points="7.84231,9.53282 7.5584,9.24891 7.84231,8.96505 8.12614,9.24891 "/>
   <polygon id="_431016720" class="fil5" points="5.00385,6.69215 4.71998,6.40833 5.00385,6.12442 5.28767,6.40833 "/>
   <polygon id="_431016408" class="fil5" points="8.3864,8.85726 8.0155,8.70362 8.16913,8.33272 8.54003,8.48636 "/>
   <polygon id="_431016648" class="fil5" points="4.46036,6.7981 4.83122,6.95173 4.67763,7.32263 4.30673,7.169 "/>
   <polygon id="_429995312" class="fil5" points="8.22975,7.62757 8.6312,7.62757 8.6312,8.02902 8.22975,8.02902 "/>
   <polygon id="_429995648" class="fil5" points="4.21524,7.62757 4.61669,7.62757 4.61669,8.02902 4.21524,8.02902 "/>
   <polygon id="_429995504" class="fil5" points="8.53995,7.16936 8.16905,7.32299 8.01542,6.95209 8.38632,6.79846 "/>
   <polygon id="_431711464" class="fil5" points="4.30661,8.48788 4.67751,8.33425 4.83114,8.70515 4.46024,8.85878 "/>
   <polygon id="_434542032" class="fil5" points="7.84223,6.12478 8.1261,6.40865 7.84223,6.69251 7.55836,6.40865 "/>
   <polygon id="_434542056" class="fil5" points="5.00365,9.53262 4.71978,9.24875 5.00365,8.96489 5.28751,9.24875 "/>
   <polygon id="_434542296" class="fil5" points="7.30043,6.23582 6.92953,6.08219 7.08317,5.71129 7.45407,5.86492 "/>
   <polygon id="_434541768" class="fil5" points="5.76432,9.94535 5.39342,9.79172 5.54705,9.42082 5.91795,9.57445 "/>
   <g>
    <g>
     <line id="_430973080" class="fil6 str0" x1="5.55789" y1="6.76578" x2="7.05563" y2= "6.76578" />
    </g>
    <g>
     <line id="_432395232" class="fil6 str0" x1="5.55789" y1="7.24383" x2="7.05555" y2= "7.24379" />
    </g>
    <g>
     <path class="fil6 str0" d="M6.39171 6.80604c0.140548,0.116541 0.221842,0.289607 0.221882,0.472187 0,0.338785 -0.274673,0.613418 -0.613458,0.613418 -0.0602578,0 -0.120195,-0.00891222 -0.177843,-0.0263753"/>
    </g>
    <g>
     <line class="fil6 str0" x1="6.6832" y1="9.08143" x2="5.80595" y2= "7.86748" />
    </g>
   </g>
  </g>
 </g>
</svg>
